HIERARCHY
ROOT Hips
{
    OFFSET 0.000000 0.000000 0.000000
    CHANNELS 6 Xposition Yposition Zposition Zrotation Yrotation Xrotation
    JOINT Chest
    {
        OFFSET 0.000000 1.634758 -0.000000
        CHANNELS 3 Zrotation Yrotation Xrotation
        JOINT Chest2
        {
            OFFSET 0.000000 2.197341 0.000000
            CHANNELS 3 Zrotation Yrotation Xrotation
            JOINT Neck
            {
                OFFSET 0.000000 0.961544 0.000000
                CHANNELS 3 Zrotation Yrotation Xrotation
                JOINT Head
                {
                    OFFSET 0.000000 0.632542 -0.032565
                    CHANNELS 3 Zrotation Yrotation Xrotation
                    End Site
                    {
                        OFFSET -0.000001 0.439502 2.922845
                    }
                }
            }
            JOINT LeftCollar
            {
                OFFSET 0.167536 0.778237 -0.168280
                CHANNELS 3 Zrotation Yrotation Xrotation
                JOINT LeftShoulder
                {
                    OFFSET 0.831514 -0.002900 0.006458
                    CHANNELS 3 Zrotation Yrotation Xrotation
                    JOINT LeftElbow
                    {
                        OFFSET 2.272872 -0.026639 0.059314
                        CHANNELS 3 Zrotation Yrotation Xrotation
                        JOINT LeftWrist
                        {
                            OFFSET 2.081982 -0.024402 0.054333
                            CHANNELS 3 Zrotation Yrotation Xrotation
                            JOINT LeftHandThumb1
                            {
                                OFFSET 0.218903 -0.128645 0.283837
                                CHANNELS 3 Zrotation Yrotation Xrotation
                                JOINT LeftHandThumb2
                                {
                                    OFFSET 0.137157 -0.025101 0.077902
                                    CHANNELS 3 Zrotation Yrotation Xrotation
                                    JOINT LeftHandThumb3
                                    {
                                        OFFSET 0.165627 -0.069871 0.035000
                                        CHANNELS 3 Zrotation Yrotation Xrotation
                                        End Site
                                        {
                                            OFFSET 0.240502 -0.031839 0.113935
                                        }
                                    }
                                }
                            }
                            JOINT LeftHandFore1
                            {
                                OFFSET 0.767340 -0.016076 0.196678
                                CHANNELS 3 Zrotation Yrotation Xrotation
                                JOINT LeftHandFore2
                                {
                                    OFFSET 0.209953 0.015152 0.051820
                                    CHANNELS 3 Zrotation Yrotation Xrotation
                                    JOINT LeftHandFore3
                                    {
                                        OFFSET 0.122798 0.026915 0.030968
                                        CHANNELS 3 Zrotation Yrotation Xrotation
                                        End Site
                                        {
                                            OFFSET 0.184280 0.040231 0.042296
                                        }
                                    }
                                }
                            }
                            JOINT LeftHandMiddle1
                            {
                                OFFSET 0.709887 -0.008320 0.018526
                                CHANNELS 3 Zrotation Yrotation Xrotation
                                JOINT LeftHandMiddle2
                                {
                                    OFFSET 0.241629 0.012926 0.038888
                                    CHANNELS 3 Zrotation Yrotation Xrotation
                                    JOINT LeftHandMiddle3
                                    {
                                        OFFSET 0.144308 -0.001893 0.023553
                                        CHANNELS 3 Zrotation Yrotation Xrotation
                                        End Site
                                        {
                                            OFFSET 0.227493 -0.048478 0.039078
                                        }
                                    }
                                }
                            }
                            JOINT LeftHandRing1
                            {
                                OFFSET 0.743817 -0.005823 -0.153668
                                CHANNELS 3 Zrotation Yrotation Xrotation
                                JOINT LeftHandRing2
                                {
                                    OFFSET 0.350991 0.012131 0.037307
                                    CHANNELS 3 Zrotation Yrotation Xrotation
                                    JOINT LeftHandRing3
                                    {
                                        OFFSET 0.134473 -0.013090 0.018740
                                        CHANNELS 3 Zrotation Yrotation Xrotation
                                        End Site
                                        {
                                            OFFSET 0.113610 -0.035477 0.015935
                                        }
                                    }
                                }
                            }
                            JOINT LeftHandLittle1
                            {
                                OFFSET 0.689408 -0.053302 -0.308304
                                CHANNELS 3 Zrotation Yrotation Xrotation
                                JOINT LeftHandLittle2
                                {
                                    OFFSET 0.193933 0.020976 0.001996
                                    CHANNELS 3 Zrotation Yrotation Xrotation
                                    JOINT LeftHandLittle3
                                    {
                                        OFFSET 0.119813 -0.011439 -0.003185
                                        CHANNELS 3 Zrotation Yrotation Xrotation
                                        End Site
                                        {
                                            OFFSET 0.189619 0.018207 0.001315
                                        }
                                    }
                                }
                            }
                        }
                    }
                }
            }
            JOINT RightCollar
            {
                OFFSET -0.167536 0.778237 -0.168280
                CHANNELS 3 Zrotation Yrotation Xrotation
                JOINT RightShoulder
                {
                    OFFSET -0.831514 -0.002900 0.006457
                    CHANNELS 3 Zrotation Yrotation Xrotation
                    JOINT RightElbow
                    {
                        OFFSET -2.272872 -0.026639 0.059313
                        CHANNELS 3 Zrotation Yrotation Xrotation
                        JOINT RightWrist
                        {
                            OFFSET -2.081982 -0.024402 0.054331
                            CHANNELS 3 Zrotation Yrotation Xrotation
                            JOINT RightHandThumb1
                            {
                                OFFSET -0.218911 -0.128571 0.283837
                                CHANNELS 3 Zrotation Yrotation Xrotation
                                JOINT RightHandThumb2
                                {
                                    OFFSET -0.137157 -0.025101 0.077902
                                    CHANNELS 3 Zrotation Yrotation Xrotation
                                    JOINT RightHandThumb3
                                    {
                                        OFFSET -0.167721 -0.066231 0.031977
                                        CHANNELS 3 Zrotation Yrotation Xrotation
                                        End Site
                                        {
                                            OFFSET -0.226107 -0.059529 0.131028
                                        }
                                    }
                                }
                            }
                            JOINT RightHandFore1
                            {
                                OFFSET -0.767344 -0.015991 0.196679
                                CHANNELS 3 Zrotation Yrotation Xrotation
                                JOINT RightHandFore2
                                {
                                    OFFSET -0.209943 0.015217 0.051856
                                    CHANNELS 3 Zrotation Yrotation Xrotation
                                    JOINT RightHandFore3
                                    {
                                        OFFSET -0.122349 0.026792 0.032787
                                        CHANNELS 3 Zrotation Yrotation Xrotation
                                        End Site
                                        {
                                            OFFSET -0.181733 0.039333 0.052846
                                        }
                                    }
                                }
                            }
                            JOINT RightHandMiddle1
                            {
                                OFFSET -0.709887 -0.008302 0.018525
                                CHANNELS 3 Zrotation Yrotation Xrotation
                                JOINT RightHandMiddle2
                                {
                                    OFFSET -0.241623 0.012910 0.038900
                                    CHANNELS 3 Zrotation Yrotation Xrotation
                                    JOINT RightHandMiddle3
                                    {
                                        OFFSET -0.144430 -0.001881 0.022821
                                        CHANNELS 3 Zrotation Yrotation Xrotation
                                        End Site
                                        {
                                            OFFSET -0.228371 -0.048407 0.033674
                                        }
                                    }
                                }
                            }
                            JOINT RightHandRing1
                            {
                                OFFSET -0.743819 -0.005785 -0.153669
                                CHANNELS 3 Zrotation Yrotation Xrotation
                                JOINT RightHandRing2
                                {
                                    OFFSET -0.350967 0.012167 0.037513
                                    CHANNELS 3 Zrotation Yrotation Xrotation
                                    JOINT RightHandRing3
                                    {
                                        OFFSET -0.135652 -0.012211 0.007373
                                        CHANNELS 3 Zrotation Yrotation Xrotation
                                        End Site
                                        {
                                            OFFSET -0.115021 -0.034421 0.002365
                                        }
                                    }
                                }
                            }
                            JOINT RightHandLittle1
                            {
                                OFFSET -0.689403 -0.053298 -0.308303
                                CHANNELS 3 Zrotation Yrotation Xrotation
                                JOINT RightHandLittle2
                                {
                                    OFFSET -0.193933 0.020998 0.002072
                                    CHANNELS 3 Zrotation Yrotation Xrotation
                                    JOINT RightHandLittle3
                                    {
                                        OFFSET -0.119778 -0.011746 0.003292
                                        CHANNELS 3 Zrotation Yrotation Xrotation
                                        End Site
                                        {
                                            OFFSET -0.189615 0.018131 0.002444
                                        }
                                    }
                                }
                            }
                        }
                    }
                }
            }
        }
    }
    JOINT LeftHip
    {
        OFFSET 0.685143 0.673822 -0.044491
        CHANNELS 3 Zrotation Yrotation Xrotation
        JOINT LeftKnee
        {
            OFFSET 0.085364 -3.750208 0.017676
            CHANNELS 3 Zrotation Yrotation Xrotation
            JOINT LeftAnkle
            {
                OFFSET 0.094583 -4.155206 0.019585
                CHANNELS 3 Zrotation Yrotation Xrotation
                JOINT LeftToe
                {
                    OFFSET -0.000000 -0.395925 0.621478
                    CHANNELS 3 Zrotation Yrotation Xrotation
                    End Site
                    {
                        OFFSET -0.000000 -0.077878 0.321152
                    }
                }
            }
        }
    }
    JOINT RightHip
    {
        OFFSET -0.685143 0.673822 -0.044492
        CHANNELS 3 Zrotation Yrotation Xrotation
        JOINT RightKnee
        {
            OFFSET -0.085364 -3.750208 0.017677
            CHANNELS 3 Zrotation Yrotation Xrotation
            JOINT RightAnkle
            {
                OFFSET -0.094583 -4.155206 0.019585
                CHANNELS 3 Zrotation Yrotation Xrotation
                JOINT RightToe
                {
                    OFFSET -0.000000 -0.395925 0.621478
                    CHANNELS 3 Zrotation Yrotation Xrotation
                    End Site
                    {
                        OFFSET -0.000000 -0.077878 0.321152
                    }
                }
            }
        }
    }
}
MOTION
Frames: 7
Frame Time: 0.033333
0.004124 8.271755 -0.483036 180.000000 -0.000011 180.000000 -0.959442 0.850019 -4.096933 0.008410 -0.132010 -3.645264 3.933551 0.300689 4.590597 -0.016484 0.320260 10.878727 -12.382496 -5.969178 -0.049867 -49.643269 -2.620197 27.499479 0.368587 -49.991177 -0.797921 -8.555017 4.183628 -7.827939 -0.000003 -0.000000 0.000000 0.000000 -0.000000 0.000002 0.000003 -0.000003 -0.000007 -0.000002 -0.000003 0.000007 0.000002 0.000007 0.000002 0.000000 -0.000000 0.000000 0.000002 -0.000005 0.000003 0.000002 0.000002 -0.000003 -0.000003 -0.000000 -0.000002 0.000000 -0.000003 -0.000002 0.000002 -0.000005 0.000007 0.000005 -0.000002 0.000002 -0.000002 -0.000002 0.000000 0.000000 -0.000000 -0.000002 0.000003 -0.000000 0.000000 12.229996 8.746735 -0.001948 57.982803 14.648203 22.996933 -0.221825 41.499580 -0.592809 29.628408 -10.235535 6.185090 -0.000005 0.000001 0.000002 0.000000 -0.000003 0.000000 0.000000 -0.000003 0.000003 0.000000 -0.000002 0.000000 -0.000002 0.000004 0.000003 0.000003 0.000001 -0.000001 0.000000 -0.000001 -0.000003 -0.000002 0.000001 0.000002 0.000007 -0.000002 0.000001 0.000002 0.000003 0.000001 -0.000002 -0.000000 0.000002 0.000002 0.000001 0.000000 0.000005 0.000003 0.000000 0.000003 -0.000007 0.000003 0.000000 -0.000003 -0.000004 -0.040884 17.697119 -4.058875 0.037272 0.309539 13.729785 -14.365348 -8.002809 -10.986181 -0.225762 -1.787035 -6.429494 0.138677 -15.431558 -4.181116 -0.038888 -0.316128 14.027982 10.213712 7.751515 -12.319774 0.162796 1.202309 -5.919043
0.004124 8.271755 -0.483036 180.000000 -0.000011 180.000000 -0.958188 0.840775 -4.083196 0.007602 -0.130519 -3.647915 3.941089 0.301144 4.585961 -0.016679 0.324051 10.870299 -12.381946 -5.970178 -0.049532 -49.646618 -2.608962 27.494177 0.369143 -50.016922 -0.798649 -8.553501 4.180480 -7.826239 -0.000002 0.000010 0.000010 -0.000003 0.000005 -0.000003 0.000003 0.000002 0.000003 -0.000007 0.000012 -0.000002 0.000002 0.000003 0.000002 0.000002 -0.000003 -0.000002 -0.000012 0.000014 -0.000009 0.000003 -0.000000 0.000000 -0.000002 0.000005 0.000000 -0.000005 0.000005 -0.000010 0.000003 -0.000003 -0.000007 0.000000 0.000005 0.000005 -0.000003 0.000010 -0.000015 -0.000007 0.000002 0.000002 0.000002 0.000002 0.000002 12.230890 8.744550 -0.002272 57.997952 14.639264 22.995024 -0.222074 41.517658 -0.593185 29.626974 -10.216784 6.174212 0.000000 0.000003 -0.000003 0.000002 -0.000003 0.000003 -0.000002 0.000001 -0.000004 0.000003 0.000011 0.000000 0.000002 -0.000002 0.000003 0.000000 -0.000002 0.000003 0.000003 -0.000001 -0.000001 0.000003 0.000001 0.000001 0.000000 -0.000003 0.000000 0.000002 0.000001 -0.000003 -0.000003 0.000004 -0.000002 0.000002 -0.000001 -0.000003 0.000003 0.000003 0.000002 0.000003 -0.000003 -0.000001 0.000000 0.000001 0.000001 -0.041033 17.694265 -4.059774 0.037282 0.309580 13.731544 -14.364233 -8.000746 -10.981793 -0.225775 -1.789116 -6.437294 0.139412 -15.417643 -4.181579 -0.038894 -0.316154 14.029098 10.225689 7.732689 -12.324009 0.162920 1.202776 -5.916205
0.004124 8.271755 -0.483036 180.000000 -0.000011 180.000000 -0.959389 0.827184 -4.050498 0.017251 -0.129152 -3.631415 3.962889 0.301584 4.566579 -0.016797 0.326339 10.834133 -12.380105 -5.975098 -0.049381 -49.665031 -2.606067 27.486021 0.370395 -50.074570 -0.800276 -8.549034 4.171149 -7.821279 -0.000002 0.000012 0.000005 -0.000003 -0.000000 0.000002 0.000002 -0.000002 0.000003 0.000002 -0.000003 -0.000005 -0.000002 0.000007 -0.000002 0.000002 -0.000003 0.000002 -0.000005 0.000007 -0.000003 0.000002 -0.000003 -0.000005 -0.000002 0.000002 0.000000 -0.000005 0.000007 -0.000012 0.000003 -0.000002 0.000002 0.000003 -0.000002 0.000002 -0.000009 0.000014 -0.000014 0.000000 -0.000003 -0.000003 0.000003 -0.000002 0.000002 12.229748 8.744052 -0.002438 58.020168 14.619021 22.983644 -0.222945 41.581139 -0.594512 29.622763 -10.161962 6.143024 0.000005 -0.000001 -0.000003 0.000003 -0.000002 -0.000002 -0.000003 -0.000004 -0.000001 0.000009 0.000003 -0.000003 0.000003 -0.000003 -0.000003 -0.000002 -0.000000 0.000003 0.000002 -0.000000 0.000001 0.000000 -0.000003 -0.000002 0.000003 -0.000002 -0.000001 0.000005 0.000003 -0.000008 -0.000002 -0.000000 0.000002 0.000003 -0.000005 0.000001 0.000003 -0.000003 -0.000006 -0.000002 -0.000000 -0.000001 0.000000 0.000009 -0.000003 -0.041468 17.685913 -4.062335 0.037309 0.309687 13.736549 -14.360971 -7.994670 -10.968971 -0.225820 -1.795215 -6.460139 0.141556 -15.377049 -4.183081 -0.038913 -0.316233 14.032630 10.260716 7.677722 -12.336493 0.163280 1.204098 -5.907764
0.004124 8.271755 -0.483036 180.000000 -0.000011 180.000000 -0.964152 0.824386 -4.008401 0.036499 -0.130226 -3.569247 3.997819 0.299666 4.526549 -0.016390 0.318456 10.758734 -12.375624 -5.987555 -0.049915 -49.697227 -2.641204 27.480577 0.372004 -50.149170 -0.802393 -8.541799 4.155833 -7.813247 -0.000005 0.000009 0.000010 0.000002 -0.000007 0.000000 0.000000 -0.000003 -0.000005 -0.000014 0.000012 -0.000002 -0.000005 0.000002 0.000000 0.000002 -0.000002 0.000002 -0.000017 0.000010 0.000002 0.000000 -0.000002 -0.000002 0.000002 0.000002 -0.000009 -0.000010 -0.000000 -0.000002 0.000003 -0.000002 0.000000 -0.000003 0.000005 0.000000 -0.000014 0.000005 -0.000002 -0.000003 0.000002 -0.000002 0.000000 0.000002 0.000002 12.223389 8.750353 -0.001988 58.033653 14.600430 22.961863 -0.224443 41.689503 -0.596777 29.615988 -10.073216 6.093676 -0.000002 0.000003 0.000003 0.000002 0.000005 -0.000005 0.000002 -0.000001 -0.000002 0.000010 0.000002 -0.000005 0.000002 0.000001 -0.000003 -0.000005 0.000001 0.000003 0.000007 -0.000010 -0.000001 -0.000002 0.000001 0.000003 -0.000002 -0.000001 0.000003 -0.000003 -0.000009 -0.000006 -0.000002 0.000002 0.000003 0.000005 0.000001 -0.000002 0.000000 0.000003 -0.000007 0.000000 -0.000003 0.000001 -0.000003 -0.000000 0.000005 -0.042174 17.672379 -4.066830 0.037356 0.309882 13.745323 -14.355647 -7.984921 -10.948631 -0.225876 -1.804976 -6.496741 0.145022 -15.311398 -4.185473 -0.038945 -0.316359 14.038293 10.317480 7.588711 -12.356658 0.163862 1.206278 -5.894360
0.004124 8.271755 -0.483036 180.000000 -0.000011 180.000000 -0.970064 0.842322 -3.949586 0.054728 -0.134485 -3.490037 4.044842 0.292113 4.473028 -0.015137 0.294092 10.657575 -12.369524 -6.003755 -0.051124 -49.744022 -2.697202 27.475723 0.374096 -50.245491 -0.805146 -8.531909 4.134692 -7.802335 0.000000 0.000019 0.000003 -0.000002 -0.000002 0.000000 -0.000002 -0.000002 -0.000003 -0.000002 0.000014 -0.000002 -0.000002 -0.000005 0.000002 0.000002 -0.000003 0.000000 -0.000003 0.000010 0.000002 -0.000003 0.000005 -0.000002 -0.000002 0.000003 -0.000003 -0.000003 0.000007 -0.000002 0.000005 -0.000000 -0.000005 0.000002 -0.000005 0.000002 0.000000 0.000005 -0.000003 0.000000 -0.000002 -0.000002 0.000002 -0.000000 0.000002 12.215127 8.758512 -0.000876 58.046703 14.560051 22.925360 -0.226629 41.846531 -0.600075 29.606880 -9.952685 6.028325 -0.000007 -0.000001 0.000004 -0.000002 0.000003 -0.000003 0.000002 -0.000001 -0.000004 -0.000007 0.000003 0.000006 -0.000002 -0.000003 -0.000001 -0.000005 -0.000002 0.000001 -0.000007 -0.000009 0.000006 0.000003 -0.000001 0.000003 -0.000003 0.000001 0.000002 -0.000007 -0.000005 0.000006 -0.000002 -0.000000 -0.000002 0.000000 -0.000002 0.000002 -0.000009 -0.000004 0.000003 -0.000002 -0.000000 0.000001 0.000002 -0.000001 -0.000001 -0.043132 17.654001 -4.072689 0.037418 0.310135 13.756773 -14.348452 -7.971622 -10.920948 -0.225931 -1.818214 -6.546414 0.149721 -15.222402 -4.188738 -0.038987 -0.316526 14.046016 10.394635 7.467858 -12.384079 0.164655 1.209292 -5.876527
0.004124 8.271755 -0.483036 180.000000 -0.000011 180.000000 -0.973088 0.867314 -3.868107 0.062731 -0.139064 -3.417793 4.103136 0.280354 4.412404 -0.013504 0.262380 10.543158 -12.362208 -6.021322 -0.052258 -49.798111 -2.745500 27.465027 0.376989 -50.376781 -0.808896 -8.519538 4.107941 -7.788735 0.000005 0.000019 0.000007 0.000000 -0.000000 0.000000 0.000002 -0.000005 -0.000002 0.000000 0.000014 0.000003 0.000000 -0.000000 -0.000003 0.000000 -0.000003 0.000002 0.000003 -0.000000 -0.000003 -0.000003 -0.000002 -0.000003 0.000002 0.000003 0.000002 0.000003 0.000003 -0.000002 -0.000003 0.000002 0.000000 0.000000 -0.000002 -0.000003 -0.000003 0.000012 -0.000009 0.000000 0.000003 0.000003 0.000003 0.000002 -0.000003 12.208525 8.763154 0.000179 58.077900 14.493600 22.879757 -0.229326 42.039024 -0.604131 29.595684 -9.802505 5.949118 0.000002 -0.000005 0.000000 0.000002 -0.000003 -0.000002 0.000000 -0.000000 0.000001 0.000005 -0.000003 -0.000004 -0.000003 0.000004 0.000006 0.000000 0.000002 -0.000007 0.000005 -0.000007 -0.000003 0.000000 -0.000009 0.000000 0.000003 -0.000000 0.000003 0.000003 0.000001 -0.000003 0.000000 -0.000001 -0.000002 -0.000003 -0.000001 0.000002 0.000003 -0.000002 -0.000003 0.000000 -0.000000 0.000002 0.000002 -0.000002 0.000003 -0.044327 17.631081 -4.080236 0.037498 0.310463 13.771508 -14.339458 -7.955090 -10.886879 -0.225962 -1.834564 -6.607852 0.155563 -15.111700 -4.192965 -0.039042 -0.316747 14.055963 10.490845 7.317354 -12.418466 0.165640 1.213057 -5.854587
0.004124 8.271755 -0.483036 180.000000 -0.000011 180.000000 -0.970413 0.877637 -3.774889 0.057115 -0.140338 -3.321278 4.171920 0.268904 4.338110 -0.012304 0.239090 10.403519 -12.350672 -6.046257 -0.052509 -49.842266 -2.794524 27.446264 0.380734 -50.545986 -0.813773 -8.504834 4.075745 -7.772651 0.000002 0.000014 -0.000003 0.000005 -0.000003 0.000000 0.000000 0.000002 0.000002 0.000002 0.000009 -0.000002 0.000000 -0.000000 -0.000002 0.000003 -0.000005 0.000002 -0.000002 0.000002 -0.000005 0.000000 0.000007 0.000002 -0.000005 0.000002 -0.000002 0.000003 -0.000002 -0.000005 0.000002 0.000003 0.000000 0.000002 0.000002 -0.000002 0.000007 -0.000000 -0.000009 -0.000002 -0.000003 -0.000003 -0.000003 0.000002 0.000003 12.201216 8.767804 0.000328 58.131367 14.443649 22.840973 -0.232152 42.237610 -0.608354 29.582680 -9.624822 5.858200 0.000000 0.000009 -0.000003 0.000002 0.000001 -0.000002 0.000003 -0.000002 -0.000002 0.000007 0.000009 -0.000009 0.000000 0.000001 0.000000 0.000005 -0.000001 0.000000 0.000003 0.000004 -0.000009 -0.000002 -0.000001 0.000003 0.000000 -0.000001 0.000001 0.000000 0.000006 -0.000009 -0.000003 0.000001 -0.000002 0.000000 0.000001 0.000002 0.000002 0.000009 -0.000007 0.000002 -0.000003 -0.000001 0.000000 0.000001 -0.000003 -0.045740 17.603958 -4.089276 0.037594 0.310854 13.789158 -14.328807 -7.935559 -10.846920 -0.225958 -1.853759 -6.680091 0.162461 -14.980968 -4.198130 -0.039110 -0.317015 14.068067 10.604777 7.139385 -12.459461 0.166804 1.217547 -5.829147
